<?xml version="1.0" encoding="iso-8859-1"?>
<!-- Generator: Adobe Illustrator 16.0.0, SVG Export Plug-In . SVG Version: 6.00 Build 0)  -->
<!DOCTYPE svg PUBLIC "-//W3C//DTD SVG 1.1//EN" "http://www.w3.org/Graphics/SVG/1.1/DTD/svg11.dtd">
<svg version="1.1" id="Capa_1" xmlns="http://www.w3.org/2000/svg" xmlns:xlink="http://www.w3.org/1999/xlink" x="0px" y="0px"
	 width="29.725px" height="29.725px" viewBox="0 0 29.725 29.725" style="enable-background:new 0 0 29.725 29.725;"
	 xml:space="preserve">
<g>
	<path d="M29.285,3.402c-0.586-0.586-1.534-0.586-2.121,0l-2.561,2.561C22.049,2.9,18.208,0.945,13.916,0.945
		C6.242,0.945,0,7.188,0,14.862s6.242,13.917,13.916,13.917c7.674,0,13.917-6.243,13.917-13.917c0-2.285-0.563-4.438-1.544-6.342
		l2.996-2.997C29.871,4.938,29.871,3.987,29.285,3.402z M24.835,14.862c0,6.021-4.897,10.917-10.918,10.917
		c-6.02,0-10.916-4.896-10.916-10.917c0-6.02,4.896-10.917,10.916-10.917c3.465,0,6.551,1.627,8.553,4.153l-8.209,8.208L9.325,11.37
		c-0.586-0.586-1.535-0.586-2.121,0c-0.586,0.585-0.586,1.535,0,2.121l5.996,5.997c0.281,0.281,0.663,0.439,1.061,0.439
		s0.778-0.158,1.062-0.439l8.713-8.712C24.546,12.039,24.835,13.417,24.835,14.862z"/>
</g>
<g>
</g>
<g>
</g>
<g>
</g>
<g>
</g>
<g>
</g>
<g>
</g>
<g>
</g>
<g>
</g>
<g>
</g>
<g>
</g>
<g>
</g>
<g>
</g>
<g>
</g>
<g>
</g>
<g>
</g>
</svg>
